<svg xmlns="http://www.w3.org/2000/svg" viewBox="0 0 1000.0 258.81" fill="currentColor">
  <g id="isotipo">
    <path id="punto" d="M 114.56,37.19 C 112.28,37.54 111.03,37.86 110.09,38.34 C 109.61,38.58 109.02,38.79 108.76,38.79 C 108.49,38.79 107.85,39.09 107.34,39.41 C 106.83,39.76 106.11,40.13 105.73,40.21 C 105.36,40.32 104.29,41.04 103.33,41.87 C 100.90,43.93 100.47,44.35 99.32,45.88 C 98.78,46.60 98.06,47.43 97.77,47.72 C 97.45,47.99 97.13,48.55 97.05,48.98 C 96.94,49.41 96.75,49.83 96.59,49.91 C 96.25,50.13 95.31,52.35 95.31,52.99 C 95.31,53.28 95.10,53.95 94.83,54.51 C 94.51,55.13 94.21,56.62 94.05,58.44 C 93.65,62.59 94.08,66.09 95.34,68.95 C 95.60,69.56 95.84,70.26 95.84,70.44 C 95.84,70.93 97.10,73.14 97.58,73.55 C 97.80,73.73 97.98,74.08 97.98,74.29 C 97.98,74.78 98.22,75.07 101.54,78.41 C 103.52,80.36 104.26,80.92 106.67,82.13 C 108.25,82.90 109.58,83.65 109.64,83.76 C 109.72,83.86 110.15,83.97 110.57,83.97 C 111.03,83.97 111.75,84.16 112.20,84.40 C 113.94,85.28 121.45,85.15 124.87,84.16 C 126.75,83.60 131.21,81.35 132.25,80.42 C 135.89,77.21 136.88,76.17 137.71,74.75 C 138.24,73.87 138.88,72.90 139.12,72.61 C 139.68,71.94 140.30,70.44 140.89,68.33 C 141.13,67.45 141.45,66.30 141.61,65.79 C 141.77,65.29 141.90,63.09 141.90,60.96 C 141.90,56.41 141.53,54.83 139.39,50.37 C 137.06,45.50 133.51,41.90 129.07,39.86 C 128.43,39.57 127.92,39.22 127.92,39.09 C 127.92,38.95 127.23,38.63 126.40,38.39 C 125.54,38.15 124.31,37.75 123.65,37.54 C 122.23,37.08 116.64,36.87 114.56,37.19 Z"/>
    <path id="trazo" d="M 301.81,63.90 C 300.45,64.19 295.32,65.87 293.39,66.65 C 291.65,67.37 287.70,69.72 285.64,71.25 C 284.84,71.86 283.98,72.45 283.74,72.61 C 282.57,73.31 275.80,79.93 272.86,83.30 C 270.08,86.43 266.15,91.35 264.52,93.70 C 264.31,94.02 263.45,95.17 262.62,96.27 C 260.89,98.62 259.76,100.20 256.53,105.09 C 255.19,107.07 253.78,109.18 253.37,109.74 C 252.97,110.33 252.39,111.18 252.09,111.64 C 251.56,112.52 246.02,120.83 245.01,122.33 C 244.69,122.76 242.15,126.64 239.31,130.89 C 234.37,138.37 231.64,142.19 228.89,145.59 C 228.17,146.47 226.91,148.02 226.08,149.06 C 223.09,152.83 216.86,158.71 213.01,161.44 C 211.11,162.75 206.01,165.13 203.97,165.64 C 200.77,166.44 193.01,166.39 190.34,165.56 C 185.07,163.93 179.22,159.43 173.79,152.91 C 171.04,149.60 165.88,141.95 162.43,136.10 C 160.94,133.56 157.19,127.73 156.23,126.47 C 155.94,126.10 155.11,124.92 154.36,123.85 C 149.55,116.90 142.81,110.11 138.03,107.39 C 133.43,104.77 131.93,104.21 126.77,103.22 C 121.64,102.23 118.38,102.44 109.82,104.37 C 107.58,104.88 101.24,107.79 98.78,109.45 C 92.18,113.91 88.68,116.90 82.67,123.37 C 80.61,125.59 78.66,127.65 78.36,127.97 C 77.19,129.15 70.53,138.05 68.58,141.04 C 67.99,141.93 67.00,143.37 66.36,144.25 C 65.72,145.13 64.92,146.34 64.59,146.92 C 64.30,147.51 62.64,150.27 60.93,153.07 C 59.22,155.85 57.22,159.30 56.49,160.69 C 55.75,162.08 55.00,163.42 54.81,163.63 C 54.62,163.85 53.93,165.10 53.26,166.44 C 52.59,167.75 51.28,170.34 50.29,172.19 C 43.64,184.91 38.05,197.37 37.27,201.32 C 36.34,206.08 38.24,212.34 41.69,215.81 C 43.96,218.14 45.88,219.42 48.88,220.65 L 51.60,221.77 L 55.88,221.75 L 60.16,221.72 L 62.96,220.60 C 68.42,218.43 70.80,216.24 73.47,210.87 C 74.43,208.92 75.72,206.14 76.28,204.67 C 76.86,203.19 77.59,201.38 77.91,200.66 C 78.20,199.91 79.11,197.58 79.94,195.44 C 82.00,190.12 82.72,188.36 83.60,186.41 C 84.00,185.50 84.35,184.70 84.35,184.62 C 84.35,184.56 84.70,183.76 85.12,182.83 C 85.55,181.89 85.98,180.85 86.09,180.47 C 86.46,179.27 90.52,170.77 91.89,168.31 C 100.04,153.85 109.66,146.66 121.91,145.86 C 127.55,145.48 132.17,146.44 137.81,149.14 C 144.01,152.11 147.17,154.84 161.07,169.35 C 165.61,174.06 171.60,179.30 175.26,181.70 C 177.14,182.93 178.74,183.95 178.82,183.95 C 178.87,183.95 180.42,184.67 182.24,185.53 C 186.87,187.74 190.58,188.65 196.30,188.92 C 204.56,189.35 212.93,187.18 220.33,182.72 C 223.09,181.03 228.89,176.49 231.88,173.66 C 234.21,171.44 239.90,165.10 242.04,162.35 C 243.91,159.92 245.60,157.56 247.81,154.28 C 248.75,152.89 250.14,150.88 250.89,149.86 C 251.61,148.82 252.68,147.27 253.24,146.42 C 253.78,145.53 254.55,144.47 254.92,144.01 C 255.30,143.56 255.83,142.75 256.10,142.25 C 256.37,141.74 257.09,140.54 257.71,139.57 C 260.35,135.48 261.79,133.21 263.96,129.68 C 270.19,119.58 270.99,118.32 277.11,109.23 C 281.04,103.43 281.18,103.24 286.20,96.45 C 292.27,88.27 299.62,81.75 306.62,78.36 C 308.87,77.29 309.86,76.97 312.72,76.49 C 316.46,75.84 318.17,75.79 322.72,76.09 C 325.55,76.27 325.71,76.25 325.98,75.71 C 326.97,73.89 321.83,68.89 316.46,66.41 C 312.05,64.40 310.15,63.90 306.36,63.79 C 304.46,63.74 302.40,63.79 301.81,63.90 Z"/>
  </g>
  <g id="wordmark">
    <path id="letra-c" d="M 390.43,80.23 C 389.47,80.52 388.16,80.76 387.49,80.76 C 386.82,80.76 385.59,81.00 384.73,81.30 C 383.91,81.59 383.02,81.83 382.81,81.83 C 382.25,81.83 378.05,83.25 375.14,84.43 C 371.26,85.98 366.48,88.60 363.56,90.79 C 362.68,91.43 361.29,92.45 360.49,93.01 C 357.87,94.88 351.96,101.03 349.53,104.45 C 348.27,106.19 347.12,107.87 346.96,108.16 C 346.80,108.46 346.08,109.66 345.39,110.84 C 343.17,114.55 340.49,120.89 339.53,124.74 C 339.34,125.46 339.05,126.34 338.89,126.66 C 338.70,126.98 338.57,127.68 338.57,128.19 C 338.57,128.69 338.33,129.74 338.03,130.48 C 337.71,131.31 337.50,132.49 337.50,133.51 C 337.50,134.41 337.31,135.94 337.07,136.90 C 336.48,139.33 336.48,147.35 337.07,150.80 C 337.31,152.19 337.50,153.95 337.50,154.70 C 337.50,155.45 337.69,156.52 337.90,157.08 C 338.14,157.62 338.43,158.79 338.57,159.70 C 338.76,161.20 339.10,162.43 339.93,164.83 C 340.09,165.26 340.39,166.28 340.63,167.08 C 340.84,167.88 341.56,169.73 342.23,171.22 C 344.42,176.17 344.64,176.54 348.70,182.74 C 350.12,184.94 352.68,187.90 355.81,191.06 C 358.78,194.05 360.06,195.10 365.35,198.84 C 367.44,200.31 374.55,203.89 376.53,204.50 C 377.20,204.69 378.27,205.07 378.93,205.33 C 381.45,206.30 383.64,206.94 384.49,206.94 C 384.97,206.94 385.62,207.04 385.88,207.20 C 388.18,208.43 402.59,209.26 407.32,208.46 C 408.69,208.22 410.66,207.90 411.68,207.77 C 414.89,207.28 419.38,206.06 422.64,204.75 C 423.39,204.45 424.51,204.02 425.18,203.78 C 427.37,203.01 431.73,200.60 434.56,198.60 C 436.09,197.53 437.82,196.32 438.41,195.92 C 439.88,194.91 447.05,187.80 448.04,186.35 C 448.49,185.71 449.59,184.16 450.52,182.91 C 451.99,180.90 453.41,178.39 456.62,171.87 C 457.93,169.22 459.93,162.75 459.93,161.17 C 459.93,160.82 459.80,160.40 459.61,160.21 C 459.37,159.97 455.79,159.89 445.09,159.89 L 430.87,159.89 L 430.34,160.48 C 430.04,160.82 429.70,161.39 429.59,161.76 C 429.24,162.96 427.18,166.95 426.14,168.44 C 423.68,171.95 419.86,175.39 416.22,177.37 C 413.71,178.76 408.98,180.47 407.70,180.47 C 407.24,180.47 406.39,180.66 405.80,180.87 C 405.02,181.14 403.50,181.25 400.32,181.25 C 395.64,181.25 396.26,181.35 388.69,179.30 C 384.01,178.04 377.38,173.09 373.64,168.10 C 371.48,165.21 368.80,160.08 368.00,157.22 C 367.68,156.12 367.25,154.65 367.04,153.98 C 366.82,153.29 366.64,152.38 366.64,151.92 C 366.64,151.47 366.45,150.24 366.24,149.14 C 365.73,146.84 365.67,141.55 366.13,139.68 C 366.29,138.96 366.53,137.60 366.64,136.63 C 366.74,135.67 366.96,134.52 367.12,134.09 C 367.28,133.64 367.68,132.38 367.97,131.29 C 368.29,130.19 369.34,127.70 370.30,125.78 C 375.27,115.89 384.44,109.07 394.97,107.50 C 397.30,107.15 403.77,107.15 405.77,107.52 C 411.55,108.54 415.66,110.19 419.97,113.27 C 421.52,114.37 424.81,117.47 425.58,118.56 C 425.87,118.96 426.46,119.74 426.86,120.27 C 427.26,120.81 428.15,122.36 428.82,123.72 C 429.48,125.08 430.26,126.34 430.53,126.47 C 430.85,126.64 436.35,126.74 445.31,126.74 C 457.31,126.74 459.64,126.69 459.90,126.37 C 460.14,126.07 460.12,125.62 459.77,124.42 C 458.57,120.22 457.61,117.71 455.81,114.04 C 450.63,103.49 444.24,96.05 434.96,89.88 C 431.41,87.50 425.02,84.21 423.04,83.70 C 422.53,83.57 421.57,83.30 420.90,83.06 C 420.23,82.85 418.98,82.45 418.10,82.21 C 417.21,81.97 415.85,81.54 415.07,81.27 C 414.27,80.98 412.96,80.76 412.13,80.76 C 411.28,80.74 410.13,80.55 409.54,80.31 C 408.66,79.93 407.11,79.85 400.32,79.80 C 392.86,79.72 392.01,79.77 390.43,80.23 Z"/>
    <path id="letra-u" d="M 480.78,83.52 C 480.22,83.65 479.93,83.94 479.79,84.45 C 479.66,84.85 479.58,98.83 479.58,115.51 C 479.58,151.84 479.77,157.62 481.34,165.90 C 481.96,169.30 483.08,173.52 483.62,174.51 C 483.80,174.94 483.99,175.42 483.99,175.58 C 483.99,175.93 484.39,176.84 486.18,180.66 C 486.74,181.89 487.20,182.93 487.20,183.01 C 487.20,183.07 487.76,184.05 488.45,185.20 C 492.28,191.51 499.57,198.54 505.43,201.51 C 508.42,203.03 513.93,205.31 516.07,205.87 C 517.03,206.14 518.15,206.48 518.55,206.64 C 518.98,206.80 519.73,206.94 520.21,206.94 C 520.72,206.94 521.60,207.10 522.14,207.31 C 522.70,207.53 524.25,207.82 525.56,208.01 C 526.89,208.17 528.74,208.41 529.70,208.54 C 532.61,208.94 542.59,208.86 546.01,208.41 C 552.21,207.55 558.17,206.24 560.36,205.20 C 560.82,204.99 561.32,204.80 561.48,204.80 C 561.65,204.80 562.23,204.56 562.77,204.26 C 563.33,203.97 563.89,203.73 564.05,203.73 C 564.21,203.73 565.60,203.11 567.13,202.34 C 570.12,200.90 573.22,198.86 575.81,196.70 C 577.60,195.23 581.61,191.14 582.31,190.10 C 582.55,189.72 583.24,188.73 583.86,187.90 C 586.48,184.30 589.26,178.63 590.65,174.06 C 591.00,172.96 591.48,171.36 591.75,170.50 C 592.04,169.67 592.25,168.63 592.25,168.20 C 592.25,167.78 592.41,166.97 592.63,166.41 C 592.81,165.82 593.06,164.41 593.16,163.26 C 593.27,162.08 593.54,160.48 593.75,159.65 C 594.07,158.39 594.12,152.51 594.12,120.97 C 594.12,91.51 594.04,83.73 593.80,83.54 C 593.62,83.41 587.17,83.33 579.48,83.38 L 565.49,83.46 L 565.25,84.13 C 565.09,84.56 564.99,97.87 564.99,119.34 C 564.99,149.14 564.93,154.06 564.59,155.18 C 564.37,155.91 564.18,157.08 564.18,157.78 C 564.18,158.50 563.94,159.68 563.65,160.42 C 563.36,161.17 563.12,161.97 563.12,162.24 C 563.09,162.48 562.87,163.18 562.58,163.77 C 562.29,164.35 562.05,165.02 562.05,165.24 C 561.99,165.77 560.60,168.52 559.19,170.82 C 554.48,178.47 542.43,182.80 531.57,180.74 C 525.08,179.51 521.52,177.85 517.99,174.38 C 515.69,172.13 513.29,168.66 512.38,166.22 C 512.06,165.40 511.55,164.06 511.23,163.26 C 510.94,162.46 510.56,160.99 510.43,160.02 C 510.29,159.03 510.11,158.10 510.03,157.96 C 509.41,157.00 509.30,151.55 509.14,119.20 C 509.01,87.85 508.93,84.21 508.56,83.84 C 508.18,83.46 506.55,83.41 494.87,83.36 C 487.57,83.33 481.24,83.38 480.78,83.52 Z"/>
    <path id="letra-r" d="M 637.83,83.36 C 625.13,83.44 625.00,83.44 624.55,84.00 C 624.09,84.53 624.06,87.79 624.06,144.17 C 624.06,184.75 624.14,203.92 624.33,204.29 C 624.60,204.77 625.05,204.80 638.87,204.80 C 651.81,204.80 653.17,204.75 653.50,204.34 C 653.82,204.00 653.90,198.44 654.00,171.54 C 654.14,141.44 654.16,139.09 654.62,138.13 C 654.86,137.57 655.07,136.63 655.07,136.07 C 655.07,135.51 655.31,134.44 655.61,133.69 C 655.90,132.94 656.14,132.14 656.14,131.87 C 656.14,130.81 659.14,124.23 660.55,122.20 C 662.77,118.99 666.83,114.82 668.71,113.80 C 669.08,113.59 670.34,112.87 671.51,112.20 C 672.69,111.50 673.95,110.89 674.32,110.81 C 674.69,110.76 675.36,110.57 675.79,110.41 C 679.56,109.05 679.72,109.02 688.57,108.86 L 697.10,108.70 L 697.60,108.06 C 698.08,107.47 698.11,106.85 698.11,96.16 C 698.11,83.68 698.11,83.68 696.51,83.44 C 694.66,83.17 677.98,83.60 676.59,83.94 C 672.15,85.07 668.73,86.35 666.70,87.63 C 666.03,88.03 664.24,89.29 662.74,90.44 C 659.83,92.63 657.93,94.69 655.05,98.91 C 654.06,100.33 653.09,101.48 652.91,101.48 C 652.59,101.48 652.51,99.93 652.40,92.71 C 652.27,84.40 652.24,83.92 651.76,83.54 C 651.46,83.33 651.09,83.20 650.96,83.22 C 650.80,83.28 644.89,83.33 637.83,83.36 Z"/>
    <path id="letra-v" d="M 702.47,83.65 C 701.99,84.13 702.04,84.69 702.66,85.98 C 702.95,86.56 703.16,87.21 703.19,87.37 C 703.19,87.55 703.43,88.22 703.72,88.84 C 704.02,89.48 705.11,92.15 706.16,94.80 C 710.27,105.25 710.67,106.21 711.08,107.15 C 711.45,107.95 713.62,113.54 715.27,117.79 C 715.73,118.96 716.32,120.43 716.58,121.05 C 716.88,121.66 717.09,122.25 717.09,122.36 C 717.09,122.46 717.30,123.03 717.60,123.64 C 718.91,126.55 719.23,127.30 719.23,127.57 C 719.23,127.70 719.44,128.35 719.71,128.96 C 720.27,130.27 720.59,131.05 722.30,135.43 C 723.00,137.19 723.77,139.12 724.07,139.73 C 724.33,140.35 724.58,140.91 724.58,141.02 C 724.58,141.12 724.79,141.71 725.08,142.33 C 725.59,143.48 728.00,149.52 729.25,152.81 C 731.50,158.63 732.76,161.76 733.53,163.50 C 733.90,164.33 736.04,169.75 737.78,174.32 C 738.32,175.71 738.88,177.10 739.01,177.40 C 739.25,177.93 740.77,181.65 741.68,183.95 C 741.95,184.62 742.75,186.65 743.50,188.49 C 744.22,190.34 745.16,192.66 745.56,193.71 C 745.93,194.72 746.36,195.82 746.50,196.11 C 746.63,196.40 747.06,197.47 747.43,198.52 C 747.83,199.53 748.37,200.82 748.63,201.32 C 748.90,201.86 749.20,202.66 749.30,203.14 C 749.65,204.83 749.36,204.80 763.76,204.80 C 770.95,204.83 777.02,204.75 777.26,204.67 C 777.50,204.58 778.01,203.65 778.41,202.58 C 778.81,201.51 779.35,200.17 779.64,199.59 C 780.28,198.22 781.83,194.40 782.98,191.30 C 783.47,189.96 784.32,187.80 784.86,186.49 C 785.42,185.15 786.11,183.36 786.46,182.48 C 786.81,181.60 787.64,179.54 788.33,177.93 C 789.00,176.30 789.93,174.03 790.36,172.85 C 790.79,171.68 791.27,170.48 791.40,170.18 C 791.54,169.89 792.45,167.59 793.41,165.10 C 794.37,162.59 795.39,160.08 795.66,159.49 C 795.95,158.90 796.40,157.80 796.70,157.08 C 796.99,156.33 797.53,155.02 797.90,154.14 C 798.27,153.26 798.94,151.52 799.42,150.27 C 799.91,149.01 800.95,146.36 801.75,144.38 C 803.97,138.93 804.05,138.72 806.08,133.56 C 807.12,130.91 808.22,128.21 808.49,127.54 C 808.75,126.88 809.37,125.38 809.85,124.20 C 810.65,122.17 811.05,121.24 812.23,118.24 C 814.34,112.95 815.60,109.82 816.16,108.54 C 816.51,107.71 816.80,106.91 816.80,106.77 C 816.80,106.51 817.36,105.09 818.30,103.03 C 818.51,102.58 818.67,102.12 818.67,102.02 C 818.67,101.93 818.99,101.16 819.37,100.33 C 820.36,98.11 820.41,98.03 821.75,94.53 C 822.41,92.77 823.19,90.79 823.48,90.12 C 824.42,87.82 825.62,84.53 825.62,84.27 C 825.62,83.36 824.63,83.30 809.50,83.38 L 794.59,83.44 L 794.05,84.72 C 793.73,85.41 792.90,87.61 792.18,89.58 C 791.43,91.56 790.60,93.70 790.34,94.34 C 790.04,94.96 789.80,95.63 789.80,95.81 C 789.77,95.97 789.56,96.62 789.27,97.20 C 788.97,97.79 788.73,98.46 788.73,98.67 C 788.73,98.89 788.49,99.42 788.20,99.88 C 787.90,100.30 787.66,100.87 787.66,101.08 C 787.66,101.32 787.42,101.96 787.13,102.55 C 786.83,103.14 786.59,103.78 786.59,103.99 C 786.59,104.18 786.38,104.85 786.09,105.46 C 785.63,106.48 784.03,110.65 782.88,113.78 C 781.81,116.69 779.80,121.82 779.62,122.06 C 779.51,122.20 779.19,123.00 778.92,123.80 C 778.63,124.60 777.69,127.14 776.84,129.42 C 775.98,131.69 775.02,134.28 774.70,135.16 C 773.95,137.19 772.75,140.27 772.26,141.31 C 771.92,142.11 770.95,144.63 769.97,147.33 C 769.67,148.13 769.22,149.33 768.95,150.00 C 767.45,153.77 766.28,157.16 766.28,157.75 C 766.28,158.13 766.04,158.95 765.74,159.60 C 765.45,160.24 765.21,161.07 765.21,161.47 C 765.21,162.13 764.75,163.79 764.08,165.58 C 763.68,166.60 763.07,166.04 763.07,164.65 C 763.07,164.09 762.91,163.20 762.69,162.72 C 762.51,162.24 762.24,161.31 762.13,160.66 C 761.84,158.79 759.49,151.84 757.67,147.33 C 756.23,143.80 755.66,142.41 755.10,140.91 C 754.81,140.11 754.06,138.16 753.47,136.55 C 752.86,134.98 751.90,132.41 751.28,130.81 C 750.13,127.73 749.41,125.94 748.61,124.12 C 748.34,123.51 748.10,122.84 748.10,122.65 C 748.10,122.46 747.86,121.88 747.56,121.32 C 747.27,120.78 747.03,120.19 747.03,120.03 C 747.03,119.87 746.84,119.36 746.63,118.91 C 746.42,118.43 746.09,117.57 745.88,116.98 C 743.98,111.69 741.42,105.01 740.05,101.93 C 739.79,101.32 739.55,100.65 739.55,100.46 C 739.52,100.30 739.30,99.66 739.01,99.07 C 738.72,98.49 738.50,97.82 738.48,97.58 C 738.48,97.36 738.29,96.94 738.07,96.64 C 737.86,96.37 737.67,95.97 737.67,95.79 C 737.67,95.57 737.38,94.69 737.03,93.78 C 736.68,92.87 735.96,90.92 735.40,89.45 C 734.12,86.00 732.94,83.44 732.68,83.44 C 732.57,83.44 725.80,83.41 717.65,83.36 C 705.65,83.30 702.76,83.38 702.47,83.65 Z"/>
    <path id="letra-a" d="M 883.76,80.12 C 883.17,80.34 881.97,80.58 881.09,80.66 C 879.41,80.82 878.04,81.22 872.94,82.98 C 867.30,84.96 861.98,88.06 856.60,92.58 C 854.57,94.26 850.03,98.89 849.57,99.69 C 849.44,99.96 848.77,100.81 848.08,101.61 C 847.41,102.42 846.53,103.57 846.15,104.15 C 845.78,104.74 844.95,106.08 844.28,107.09 C 842.70,109.53 841.42,112.12 839.92,115.81 C 839.25,117.44 838.53,119.12 838.32,119.55 C 838.11,119.95 837.92,120.62 837.92,120.99 C 837.92,121.37 837.73,122.06 837.49,122.55 C 836.98,123.51 836.42,125.51 835.94,128.21 C 835.73,129.23 835.46,130.43 835.27,130.83 C 835.11,131.26 834.98,132.20 834.98,132.94 C 834.98,133.69 834.79,135.43 834.55,136.82 C 833.43,143.40 835.14,160.69 837.41,165.66 C 837.70,166.28 837.92,167.00 837.92,167.27 C 837.94,167.53 838.16,168.26 838.45,168.84 C 838.75,169.43 838.96,170.13 838.99,170.37 C 838.99,171.12 842.89,179.24 844.09,181.06 C 844.44,181.60 845.43,183.07 846.29,184.35 C 847.65,186.41 850.29,189.64 853.18,192.82 C 855.91,195.82 864.09,201.59 868.12,203.41 C 868.93,203.76 870.24,204.34 871.01,204.72 C 873.74,205.97 879.33,207.61 882.29,208.01 C 883.39,208.17 885.21,208.43 886.30,208.57 C 888.63,208.92 898.25,208.70 899.67,208.30 C 900.18,208.14 901.51,207.90 902.61,207.77 C 908.36,206.96 915.81,204.00 921.48,200.23 C 924.93,197.96 930.89,192.13 932.79,189.21 C 934.79,186.14 934.82,186.22 934.85,195.92 C 934.85,200.95 934.98,204.40 935.11,204.53 C 935.30,204.72 940.46,204.77 949.02,204.75 L 962.62,204.67 L 962.81,203.06 C 962.94,202.18 963.00,175.10 962.94,142.86 C 962.89,90.36 962.84,84.21 962.49,83.84 C 961.87,83.25 935.89,83.20 935.28,83.78 C 934.95,84.10 934.90,85.60 934.85,92.42 C 934.82,99.66 934.77,100.68 934.39,100.76 C 934.15,100.81 933.30,99.90 932.15,98.35 C 928.62,93.65 924.90,90.25 919.72,86.99 C 915.95,84.61 913.73,83.70 905.52,81.14 C 904.83,80.92 903.87,80.76 903.38,80.76 C 902.88,80.76 901.59,80.52 900.50,80.23 C 898.76,79.75 897.66,79.69 891.68,79.69 C 886.36,79.72 884.59,79.80 883.76,80.12 Z M 905.42,107.76 C 906.59,108.08 907.93,108.40 908.36,108.54 C 910.04,108.97 912.87,110.25 914.45,111.26 C 915.36,111.83 916.62,112.55 917.23,112.87 C 919.05,113.78 923.06,117.55 925.36,120.51 C 927.63,123.45 930.41,128.80 931.45,132.22 C 931.75,133.24 932.25,134.87 932.58,135.83 C 933.08,137.41 933.14,138.16 933.14,144.17 C 933.14,150.16 933.08,150.96 932.58,152.59 C 932.28,153.58 931.72,155.43 931.35,156.68 C 929.88,161.52 925.01,169.43 922.07,171.73 C 921.59,172.11 920.55,173.01 919.74,173.74 C 916.80,176.44 912.23,178.60 904.91,180.74 C 902.07,181.57 895.77,181.52 891.78,180.61 C 884.81,179.06 880.96,177.29 876.25,173.42 C 873.95,171.52 869.92,166.84 868.87,164.83 C 866.68,160.64 865.96,159.09 865.72,158.04 C 865.59,157.38 865.21,155.96 864.92,154.94 C 864.60,153.90 864.25,152.35 864.12,151.47 C 864.01,150.59 863.77,149.22 863.61,148.42 C 863.45,147.65 863.31,146.26 863.31,145.35 C 863.29,140.54 865.34,130.38 866.92,127.41 C 867.40,126.53 868.18,125.11 868.63,124.23 C 870.18,121.37 873.79,117.07 876.47,114.93 C 879.25,112.65 883.82,109.95 886.04,109.23 C 886.84,108.97 888.17,108.54 888.98,108.30 C 889.78,108.03 891.54,107.68 892.85,107.50 C 894.19,107.33 895.44,107.15 895.66,107.09 C 896.83,106.80 903.44,107.25 905.42,107.76 Z" fill-rule="evenodd"/>
  </g>
</svg>
