<svg width="1000" height="1000" xmlns="http://www.w3.org/2000/svg" viewBox="0 0 1000 1000" fill="#000000">
  <g id="isotipo"><path id="punto" d="M 296.64,220.17 C 289.75,221.22 285.94,222.19 283.10,223.65 C 281.64,224.38 279.85,225.03 279.04,225.03 C 278.23,225.03 276.28,225.93 274.74,226.90 C 273.20,227.95 271.01,229.09 269.87,229.33 C 268.74,229.66 265.49,231.85 262.57,234.36 C 255.19,240.61 253.89,241.91 250.41,246.53 C 248.78,248.72 246.59,251.23 245.70,252.13 C 244.73,252.94 243.75,254.64 243.51,255.94 C 243.19,257.24 242.62,258.54 242.13,258.78 C 241.08,259.43 238.24,266.16 238.24,268.11 C 238.24,269.00 237.59,271.03 236.78,272.73 C 235.80,274.60 234.91,279.14 234.42,284.66 C 233.21,297.23 234.51,307.86 238.32,316.54 C 239.13,318.40 239.86,320.51 239.86,321.08 C 239.86,322.54 243.67,329.27 245.13,330.49 C 245.78,331.06 246.35,332.11 246.35,332.76 C 246.35,334.22 247.08,335.11 257.14,345.25 C 263.14,351.17 265.41,352.88 272.71,356.53 C 277.50,358.88 281.56,361.15 281.72,361.48 C 281.96,361.80 283.26,362.13 284.56,362.13 C 285.94,362.13 288.13,362.69 289.50,363.42 C 294.78,366.10 317.57,365.70 327.96,362.69 C 333.63,360.99 347.18,354.18 350.35,351.34 C 361.38,341.60 364.38,338.44 366.89,334.14 C 368.52,331.46 370.46,328.54 371.19,327.65 C 372.90,325.62 374.76,321.08 376.55,314.67 C 377.28,311.99 378.25,308.51 378.74,306.96 C 379.22,305.42 379.63,298.77 379.63,292.28 C 379.63,278.49 378.49,273.70 372.00,260.16 C 364.95,245.39 354.16,234.44 340.69,228.28 C 338.74,227.39 337.20,226.33 337.20,225.93 C 337.20,225.52 335.09,224.55 332.58,223.82 C 329.98,223.09 326.25,221.87 324.22,221.22 C 319.93,219.84 302.97,219.19 296.64,220.17 Z"/><path id="trazo" d="M 864.89,301.20 C 860.75,302.10 845.18,307.21 839.34,309.56 C 834.06,311.75 822.06,318.89 815.81,323.51 C 813.38,325.38 810.78,327.16 810.05,327.65 C 806.48,329.76 785.96,349.88 777.04,360.10 C 768.60,369.59 756.68,384.51 751.73,391.65 C 751.08,392.63 748.48,396.12 745.97,399.44 C 740.70,406.58 737.29,411.37 727.47,426.21 C 723.42,432.21 719.12,438.62 717.90,440.33 C 716.68,442.11 714.90,444.71 714.01,446.09 C 712.38,448.76 695.59,473.99 692.51,478.53 C 691.54,479.83 683.83,491.59 675.23,504.49 C 660.22,527.21 651.95,538.81 643.59,549.11 C 641.40,551.78 637.59,556.49 635.08,559.65 C 625.99,571.09 607.09,588.94 595.41,597.21 C 589.65,601.19 574.16,608.41 567.99,609.95 C 558.26,612.38 534.73,612.22 526.62,609.70 C 510.64,604.76 492.87,591.13 476.41,571.33 C 468.05,561.28 452.39,538.08 441.93,520.31 C 437.39,512.60 426.03,494.92 423.11,491.11 C 422.22,489.97 419.70,486.40 417.43,483.16 C 402.83,462.07 382.39,441.46 367.87,433.19 C 353.91,425.24 349.37,423.53 333.72,420.53 C 318.14,417.53 308.24,418.18 282.29,424.02 C 275.47,425.56 256.25,434.40 248.78,439.43 C 228.75,452.98 218.12,462.07 199.87,481.70 C 193.62,488.43 187.70,494.68 186.81,495.65 C 183.24,499.22 163.04,526.23 157.12,535.32 C 155.33,537.99 152.33,542.37 150.38,545.05 C 148.44,547.73 146.00,551.38 145.03,553.16 C 144.14,554.95 139.11,563.30 133.92,571.82 C 128.72,580.26 122.64,590.72 120.45,594.94 C 118.18,599.16 115.91,603.21 115.34,603.86 C 114.77,604.51 112.66,608.33 110.64,612.38 C 108.61,616.36 104.63,624.23 101.63,629.82 C 81.43,668.44 64.48,706.24 62.13,718.24 C 59.29,732.68 65.05,751.66 75.51,762.21 C 82.41,769.27 88.25,773.16 97.33,776.89 L 105.61,780.30 L 118.58,780.22 L 131.56,780.14 L 140.08,776.73 C 156.63,770.16 163.85,763.51 171.96,747.20 C 174.88,741.28 178.78,732.84 180.48,728.38 C 182.26,723.92 184.45,718.41 185.43,716.22 C 186.32,713.94 189.08,706.89 191.59,700.40 C 197.84,684.25 200.03,678.90 202.71,672.98 C 203.92,670.22 204.98,667.79 204.98,667.54 C 204.98,667.38 206.03,664.95 207.33,662.11 C 208.63,659.27 209.93,656.11 210.25,654.97 C 211.39,651.32 223.72,625.52 227.85,618.06 C 252.60,574.17 281.80,552.35 318.95,549.92 C 336.07,548.78 350.10,551.70 367.22,559.90 C 386.04,568.90 395.61,577.18 437.79,621.22 C 451.58,635.50 469.75,651.40 480.87,658.70 C 486.55,662.43 491.41,665.52 491.66,665.52 C 491.82,665.52 496.52,667.71 502.04,670.30 C 516.07,677.03 527.35,679.79 544.71,680.60 C 569.78,681.90 595.17,675.33 617.64,661.78 C 625.99,656.67 643.59,642.88 652.68,634.28 C 659.74,627.55 677.02,608.33 683.51,599.97 C 689.18,592.59 694.29,585.45 701.03,575.47 C 703.87,571.25 708.08,565.17 710.36,562.09 C 712.55,558.92 715.79,554.22 717.49,551.62 C 719.12,548.95 721.47,545.70 722.61,544.32 C 723.74,542.94 725.36,540.51 726.17,538.97 C 726.99,537.43 729.18,533.78 731.04,530.86 C 739.07,518.44 743.45,511.55 750.02,500.84 C 768.93,470.18 771.36,466.37 789.94,438.78 C 801.86,421.18 802.27,420.61 817.52,400.01 C 835.93,375.19 858.24,355.39 879.49,345.09 C 886.31,341.85 889.31,340.87 897.99,339.41 C 909.34,337.47 914.54,337.30 928.33,338.20 C 936.92,338.76 937.41,338.68 938.22,337.06 C 941.22,331.54 925.65,316.37 909.34,308.83 C 895.96,302.75 890.20,301.20 878.68,300.88 C 872.92,300.72 866.67,300.88 864.89,301.20 Z"/></g>
</svg>
